<?xml version="1.0" encoding="utf-8"?>
<!-- Generator: Adobe Illustrator 24.1.1, SVG Export Plug-In . SVG Version: 6.00 Build 0)  -->
<svg version="1.1" id="Capa_1" xmlns="http://www.w3.org/2000/svg" xmlns:xlink="http://www.w3.org/1999/xlink" x="0px" y="0px"
	 viewBox="0 0 512.6 513.6" style="enable-background:new 0 0 512.6 513.6;" xml:space="preserve">
<style type="text/css">
	.st0{fill:#FFFFFF;}
</style>
<g>
	<g>
		<path class="st0" d="M499.1,377l-71.7-71.7c-25.6-25.6-69.1-15.4-79.4,17.9c-7.7,23-33.3,35.8-56.3,30.7
			c-51.2-12.8-120.3-79.4-133.1-133.1c-7.7-23,7.7-48.6,30.7-56.3c33.3-10.2,43.5-53.8,17.9-79.4l-71.7-71.7
			c-20.5-17.9-51.2-17.9-69.1,0L17.8,62.1C-30.8,113.3,23,249,143.3,369.3s256,176.6,307.2,125.4l48.6-48.6
			C517,425.6,517,394.9,499.1,377z"/>
	</g>
</g>
</svg>
