<?xml version="1.0" encoding="utf-8"?>
<!-- Generator: Adobe Illustrator 24.1.1, SVG Export Plug-In . SVG Version: 6.00 Build 0)  -->
<svg version="1.1" id="Capa_1" xmlns="http://www.w3.org/2000/svg" xmlns:xlink="http://www.w3.org/1999/xlink" x="0px" y="0px"
	 viewBox="0 0 127 127" style="enable-background:new 0 0 127 127;" xml:space="preserve">
<style type="text/css">
	.st0{fill:#FFFFFF;}
</style>
<g>
	<g>
		<path class="st0" d="M122,0H85.4c-2.7,0-5,2.2-5,5s2.2,5,5,5h24.7L70.3,49.7c-1.9,1.9-1.9,5.1,0,7c1.9,1.9,5.1,1.9,7,0l39.8-39.8
			v24.7c0,2.7,2.2,5,5,5s5-2.2,5-5V5C127,2.3,124.8,0,122,0z"/>
	</g>
</g>
<g>
	<g>
		<path class="st0" d="M56.7,70.3c-1.9-1.9-5.1-1.9-7,0L9.9,110.1V85.4c0-2.7-2.2-5-5-5s-5,2.2-5,5V122c0,2.7,2.2,5,5,5h36.7
			c2.7,0,5-2.2,5-5s-2.2-5-5-5H16.9l39.8-39.8C58.6,75.4,58.6,72.2,56.7,70.3z"/>
	</g>
</g>
</svg>
